<svg width="22" height="22" viewBox="0 0 22 22" fill="none" xmlns="http://www.w3.org/2000/svg">
<path d="M8.99121 14.0005C9.12255 14.0006 9.25262 13.9748 9.37398 13.9245C9.49534 13.8743 9.60561 13.8006 9.69849 13.7078C9.79136 13.6149 9.86502 13.5046 9.91525 13.3833C9.96547 13.2619 9.99129 13.1318 9.99121 13.0005V5.00049C9.99121 4.73527 9.88585 4.48092 9.69832 4.29338C9.51078 4.10584 9.25643 4.00049 8.99121 4.00049C8.72599 4.00049 8.47164 4.10584 8.2841 4.29338C8.09657 4.48092 7.99121 4.73527 7.99121 5.00049V13.0005C7.99114 13.1318 8.01695 13.2619 8.06718 13.3833C8.11741 13.5046 8.19106 13.6149 8.28394 13.7078C8.37681 13.8006 8.48708 13.8743 8.60844 13.9245C8.7298 13.9747 8.85987 14.0006 8.99121 14.0005ZM12.9912 14.0005C13.1226 14.0006 13.2526 13.9748 13.374 13.9245C13.4953 13.8743 13.6056 13.8006 13.6985 13.7078C13.7914 13.6149 13.865 13.5046 13.9152 13.3833C13.9655 13.2619 13.9913 13.1318 13.9912 13.0005V5.00049C13.9912 4.73527 13.8859 4.48092 13.6983 4.29338C13.5108 4.10584 13.2564 4.00049 12.9912 4.00049C12.726 4.00049 12.4716 4.10584 12.2841 4.29338C12.0966 4.48092 11.9912 4.73527 11.9912 5.00049V13.0005C11.9911 13.1318 12.017 13.2619 12.0672 13.3833C12.1174 13.5046 12.1911 13.6149 12.2839 13.7078C12.3768 13.8006 12.4871 13.8743 12.6084 13.9245C12.7298 13.9747 12.8599 14.0006 12.9912 14.0005ZM4.99121 12.0005C5.12255 12.0006 5.25262 11.9748 5.37398 11.9245C5.49534 11.8743 5.60561 11.8006 5.69849 11.7078C5.79136 11.6149 5.86502 11.5046 5.91525 11.3833C5.96547 11.2619 5.99129 11.1318 5.99121 11.0005V7.00049C5.99121 6.73527 5.88585 6.48092 5.69832 6.29338C5.51078 6.10584 5.25643 6.00049 4.99121 6.00049C4.72599 6.00049 4.47164 6.10584 4.2841 6.29338C4.09657 6.48092 3.99121 6.73527 3.99121 7.00049V11.0005C3.99114 11.1318 4.01695 11.2619 4.06718 11.3833C4.11741 11.5046 4.19106 11.6149 4.28394 11.7078C4.37681 11.8006 4.48708 11.8743 4.60844 11.9245C4.7298 11.9747 4.85987 12.0006 4.99121 12.0005ZM18.9912 0.000488281H2.99121C2.19583 0.00135648 1.43327 0.317706 0.870849 0.880127C0.308428 1.44255 -0.00792087 2.20511 -0.00878906 3.00049V19.0005C-0.00792087 19.7959 0.308428 20.5584 0.870849 21.1208C1.43327 21.6833 2.19583 21.9996 2.99121 22.0005H18.9912C19.7866 21.9996 20.5492 21.6833 21.1116 21.1208C21.674 20.5584 21.9903 19.7959 21.9912 19.0005V3.00049C21.9903 2.20511 21.674 1.44255 21.1116 0.880127C20.5492 0.317706 19.7866 0.00135648 18.9912 0.000488281ZM19.9912 19.0005C19.991 19.2656 19.8856 19.5199 19.6981 19.7074C19.5106 19.8949 19.2564 20.0003 18.9912 20.0005H2.99121C2.72605 20.0003 2.4718 19.8949 2.2843 19.7074C2.0968 19.5199 1.99139 19.2656 1.99121 19.0005V3.00049C1.99139 2.73533 2.0968 2.48108 2.2843 2.29358C2.4718 2.10608 2.72605 2.00067 2.99121 2.00049H18.9912C19.2564 2.00067 19.5106 2.10608 19.6981 2.29358C19.8856 2.48108 19.991 2.73533 19.9912 3.00049V19.0005ZM16.3477 14.4087C14.7819 15.5058 12.902 16.0644 10.9912 16.0005C9.08194 16.0526 7.20574 15.495 5.63477 14.4087C5.53423 14.3242 5.41802 14.2603 5.29279 14.2207C5.16756 14.1811 5.03575 14.1665 4.9049 14.1779C4.77404 14.1892 4.6467 14.2262 4.53015 14.2868C4.41359 14.3473 4.3101 14.4302 4.22559 14.5308C4.14108 14.6313 4.0772 14.7475 4.03759 14.8727C3.99799 14.998 3.98344 15.1298 3.99478 15.2606C4.00611 15.3915 4.04311 15.5188 4.10366 15.6354C4.16421 15.7519 4.24712 15.8554 4.34766 15.9399C6.27434 17.3407 8.61005 18.0651 10.9912 18.0005C13.3724 18.0651 15.7081 17.3406 17.6348 15.9399C17.8378 15.7693 17.9648 15.5249 17.9877 15.2606C18.0105 14.9964 17.9275 14.7338 17.7568 14.5308C17.5862 14.3277 17.3418 14.2008 17.0775 14.1779C16.8133 14.155 16.5507 14.238 16.3477 14.4087ZM16.9912 6.00049C16.8599 6.00041 16.7298 6.02623 16.6084 6.07645C16.4871 6.12668 16.3768 6.20034 16.2839 6.29321C16.1911 6.38609 16.1174 6.49635 16.0672 6.61771C16.0169 6.73907 15.9911 6.86914 15.9912 7.00049V11.0005C15.9912 11.2657 16.0966 11.5201 16.2841 11.7076C16.4716 11.8951 16.726 12.0005 16.9912 12.0005C17.2564 12.0005 17.5108 11.8951 17.6983 11.7076C17.8859 11.5201 17.9912 11.2657 17.9912 11.0005V7.00049C17.9913 6.86914 17.9655 6.73907 17.9152 6.61771C17.865 6.49635 17.7914 6.38609 17.6985 6.29321C17.6056 6.20034 17.4953 6.12668 17.374 6.07645C17.2526 6.02623 17.1226 6.00041 16.9912 6.00049Z" fill="black"/>
</svg>
