<svg width="32" height="auto" viewBox="0 0 163 123" fill="none" xmlns="http://www.w3.org/2000/svg">
<path fill-rule="evenodd" clip-rule="evenodd" d="M30.6116 1.16564C30.2856 0.455301 29.5756 0 28.794 0H2.11871C0.660921 0 -0.307099 1.50948 0.301061 2.83436L54.6419 121.216C54.9679 121.926 55.6779 122.381 56.4595 122.381H83.1347C84.5924 122.381 85.5605 120.872 84.9523 119.547L30.6116 1.16564ZM88.086 1.16287C87.7593 0.454032 87.0501 0 86.2696 0H86.2534H56.3482V0C55.6422 0 54.9897 0.376452 54.6364 0.987683L48.5833 11.4591C47.8126 12.7925 48.7748 14.4601 50.3148 14.4601H61.7322C62.5127 14.4601 63.2219 14.9141 63.5486 15.6229L112.215 121.218C112.542 121.927 113.251 122.381 114.032 122.381H140.829C142.288 122.381 143.256 120.869 142.646 119.544L88.086 1.16287ZM141.822 41.9692C153.384 41.9692 162.756 32.5742 162.756 20.9847C162.756 9.39518 153.384 0 141.822 0C130.261 0 120.889 9.39518 120.889 20.9847C120.889 32.5742 130.261 41.9692 141.822 41.9692Z" fill="black"/>
</svg>
