<svg width="20" height="20" viewBox="0 0 20 20" fill="none" xmlns="http://www.w3.org/2000/svg">
<path d="M0 0V20H20V0H0ZM11.57 15.85C11.1008 15.8986 10.6267 15.8491 10.1777 15.7045C9.72872 15.56 9.31472 15.3236 8.96203 15.0104C8.60934 14.6972 8.32567 14.3141 8.12906 13.8853C7.93245 13.4566 7.8272 12.9916 7.82 12.52V8.44H6.56V6.83C7.24671 6.56383 7.84212 6.10531 8.27488 5.50938C8.70764 4.91344 8.9594 4.20537 9 3.47C9 3.44613 9.00948 3.42324 9.02636 3.40636C9.04324 3.38948 9.06613 3.38 9.09 3.38H10.91V6.55H13.41V8.44H10.92V12.33C10.9016 12.4934 10.9197 12.6589 10.9731 12.8144C11.0264 12.9699 11.1137 13.1117 11.2285 13.2294C11.3433 13.3471 11.4829 13.4378 11.6371 13.495C11.7912 13.5522 11.9562 13.5744 12.12 13.56C12.4635 13.5445 12.8017 13.4701 13.12 13.34L13.72 15.12C13.1106 15.6069 12.3499 15.8652 11.57 15.85Z" fill="black"/>
</svg>
